<?xml version="1.0" encoding="utf-8"?>
<!-- Generator: Adobe Illustrator 24.0.1, SVG Export Plug-In . SVG Version: 6.00 Build 0)  -->
<svg version="1.1" id="Layer_1" xmlns="http://www.w3.org/2000/svg" xmlns:xlink="http://www.w3.org/1999/xlink" x="0px" y="0px"
	 viewBox="0 0 2500 741" style="enable-background:new 0 0 2500 741;" xml:space="preserve">
<style type="text/css">
	.st0{fill:#FFFFFF;}
	.st1{fill:#A6A6A6;}
	.st2{fill:url(#SVGID_1_);}
</style>
<path class="st0" d="M2483.4,653.5c0,39.2-31.8,71-71,71H87.6c-39.3,0-71.1-31.8-71.1-71V87.6c0-39.2,31.9-71.1,71.1-71.1h2324.7
	c39.3,0,71,31.9,71,71.1L2483.4,653.5z"/>
<path class="st1" d="M2412.4,741H87.6C39.3,741,0,701.7,0,653.5V87.6C0,39.3,39.3,0,87.6,0h2324.7c48.2,0,87.6,39.3,87.6,87.6v565.9
	C2500,701.7,2460.6,741,2412.4,741L2412.4,741z"/>
<path d="M2483.4,653.5c0,39.2-31.8,71-71,71H87.6c-39.3,0-71.1-31.8-71.1-71V87.6c0-39.2,31.9-71.1,71.1-71.1h2324.7
	c39.3,0,71,31.9,71,71.1L2483.4,653.5z"/>
<linearGradient id="SVGID_1_" gradientUnits="userSpaceOnUse" x1="-315.6442" y1="-759.4961" x2="-315.6442" y2="-723.4501" gradientTransform="matrix(18.5285 0 0 -18.5285 7682.0063 -13329.3613)">
	<stop  offset="0" style="stop-color:#1A1A1A;stop-opacity:0.1"/>
	<stop  offset="0.123" style="stop-color:#212121;stop-opacity:0.151"/>
	<stop  offset="0.308" style="stop-color:#353535;stop-opacity:0.227"/>
	<stop  offset="0.532" style="stop-color:#575757;stop-opacity:0.318"/>
	<stop  offset="0.783" style="stop-color:#858585;stop-opacity:0.421"/>
	<stop  offset="1" style="stop-color:#B3B3B3;stop-opacity:0.51"/>
</linearGradient>
<path class="st2" d="M2412.4,0H1167.2L1654.9,741h757.5c48.2,0,87.6-39.2,87.6-87.5V87.6C2500,39.3,2460.6,0,2412.4,0z"/>
<path class="st0" d="M994.3,583.8h-42.1l-23-72.4h-80.1l-22,72.4h-41l79.4-246.6h49L994.3,583.8L994.3,583.8z M922.3,480.9
	l-20.8-64.4c-2.2-6.6-6.4-22.1-12.4-46.5h-0.7c-2.4,10.5-6.4,26-11.7,46.5L856,480.9H922.3L922.3,480.9z M1198.1,492.7
	c0,30.2-8.2,54.1-24.6,71.7c-14.7,15.6-33,23.4-54.8,23.4c-23.5,0-40.5-8.4-50.8-25.2v93.3h-39.5V464.4c0-19-0.5-38.5-1.5-58.4h34.7
	l2.2,28.2h0.7c13.2-21.2,33.2-31.9,60-31.9c21,0,38.5,8.3,52.5,24.9C1191.1,443.8,1198.1,465.6,1198.1,492.7L1198.1,492.7z
	 M1157.9,494.1c0-17.3-3.9-31.6-11.7-42.8c-8.5-11.7-20-17.5-34.4-17.5c-9.7,0-18.6,3.3-26.5,9.7c-7.9,6.5-13.1,15-15.5,25.4
	c-1.2,4.9-1.8,8.9-1.8,12v29.7c0,12.9,4,23.8,11.9,32.8c7.9,8.9,18.2,13.4,30.9,13.4c14.9,0,26.5-5.8,34.7-17.2
	C1153.7,528,1157.9,512.9,1157.9,494.1L1157.9,494.1z M1402.6,492.7c0,30.2-8.2,54.1-24.6,71.7c-14.7,15.6-33,23.4-54.8,23.4
	c-23.5,0-40.5-8.4-50.8-25.2v93.3h-39.5V464.4c0-19-0.5-38.5-1.5-58.4h34.7l2.2,28.2h0.7c13.2-21.2,33.1-31.9,60-31.9
	c21,0,38.5,8.3,52.5,24.9C1395.6,443.8,1402.6,465.6,1402.6,492.7L1402.6,492.7z M1362.3,494.1c0-17.3-3.9-31.6-11.7-42.8
	c-8.5-11.7-20-17.5-34.4-17.5c-9.7,0-18.6,3.3-26.6,9.7c-7.9,6.5-13.1,15-15.5,25.4c-1.2,4.9-1.9,8.9-1.9,12v29.7
	c0,12.9,4,23.8,11.9,32.8c7.9,8.9,18.2,13.4,30.9,13.4c14.9,0,26.5-5.8,34.7-17.2C1358.2,528,1362.3,512.9,1362.3,494.1
	L1362.3,494.1z M1631.3,514.6c0,21-7.3,38.1-21.9,51.2c-16,14.4-38.4,21.6-67.2,21.6c-26.5,0-47.8-5.1-63.8-15.4l9.1-32.9
	c17.3,10.3,36.4,15.4,57.1,15.4c14.9,0,26.5-3.4,34.7-10.1c8.3-6.7,12.5-15.7,12.5-26.9c0-10-3.5-18.4-10.3-25.3
	c-6.8-6.8-18.1-13.2-34-19c-43.2-16.1-64.8-39.7-64.8-70.6c0-20.2,7.6-36.8,22.9-49.7c15.2-12.9,35.4-19.4,60.6-19.4
	c22.4,0,41.1,3.9,56,11.7l-9.9,32.2c-14-7.6-29.7-11.3-47.4-11.3c-13.9,0-24.9,3.4-32.7,10.2c-6.6,6.1-9.9,13.5-9.9,22.3
	c0,9.7,3.8,17.8,11.4,24.1c6.6,5.8,18.5,12.2,35.8,19c21.2,8.6,36.8,18.5,46.8,30C1626.2,483.3,1631.3,497.6,1631.3,514.6
	L1631.3,514.6z M1762.2,435.6h-43.5v86.3c0,22,7.7,32.9,23.1,32.9c7.1,0,12.9-0.6,17.5-1.8l1.1,30c-7.8,2.9-18,4.4-30.7,4.4
	c-15.6,0-27.8-4.8-36.6-14.3c-8.8-9.5-13.2-25.5-13.2-47.9v-89.6h-25.9v-29.6h25.9v-32.6l38.8-11.7v44.3h43.5V435.6L1762.2,435.6z
	 M1958.3,493.4c0,27.3-7.8,49.8-23.4,67.3c-16.3,18.1-38,27.1-65.1,27.1c-26.1,0-46.9-8.7-62.4-25.9c-15.5-17.3-23.2-39.2-23.2-65.5
	c0-27.6,8-50.1,24-67.7c16-17.6,37.5-26.3,64.6-26.3c26.1,0,47,8.7,62.9,26C1950.7,445.1,1958.3,466.8,1958.3,493.4L1958.3,493.4z
	 M1917.3,494.3c0-16.3-3.5-30.3-10.6-42c-8.3-14.1-20.1-21.2-35.5-21.2c-15.8,0-28,7.1-36.2,21.2c-7.1,11.7-10.6,25.9-10.6,42.7
	c0,16.3,3.5,30.3,10.6,42c8.5,14.1,20.5,21.2,35.9,21.2c15.1,0,26.9-7.2,35.5-21.5C1913.7,524.7,1917.3,510.6,1917.3,494.3z
	 M2086.7,440.7c-3.9-0.7-8.1-1.1-12.5-1.1c-13.9,0-24.6,5.2-32.2,15.7c-6.6,9.3-9.9,21-9.9,35.1v93.3h-39.5V461.9
	c0-20.5-0.4-39.2-1.1-56h34.4l1.4,34h1.1c4.2-11.7,10.7-21.1,19.8-28.2c8.8-6.4,18.3-9.5,28.6-9.5c3.6,0,6.9,0.3,9.9,0.7
	L2086.7,440.7z M2263.4,486.4c0,7.1-0.5,13-1.4,17.9h-118.5c0.4,17.6,6.2,31,17.2,40.3c10,8.3,22.9,12.4,38.8,12.4
	c17.5,0,33.6-2.8,48-8.4l6.2,27.4c-16.8,7.3-36.7,11-59.6,11c-27.6,0-49.2-8.1-65-24.3c-15.7-16.2-23.6-38-23.6-65.3
	c0-26.8,7.3-49.1,22-66.9c15.3-19,36.1-28.5,62.2-28.5c25.6,0,45,9.5,58.2,28.5C2258.1,445.6,2263.4,464.3,2263.4,486.4
	L2263.4,486.4z M2225.7,476.2c0.3-11.7-2.3-21.8-7.7-30.4c-6.8-11-17.4-16.5-31.5-16.5c-12.9,0-23.4,5.4-31.4,16.1
	c-6.6,8.5-10.5,18.8-11.7,30.7L2225.7,476.2z"/>
<path class="st0" d="M903.2,248.9h-20.7l-11.3-35.6h-39.4L821,248.9h-20.1l39-121.2H864L903.2,248.9z M867.8,198.4l-10.2-31.6
	c-1.1-3.2-3.1-10.8-6.1-22.8h-0.4c-1.3,5.2-3.1,12.8-5.8,22.8l-10.1,31.6H867.8z M1000.8,161.5l-33.1,87.4h-18.9l-32-87.4h20.9
	l14.9,46.2c2.5,7.7,4.7,15.1,6.3,22.1h0.5c1.4-6.3,3.6-13.7,6.3-22.1l14.7-46.2H1000.8L1000.8,161.5z M1071.2,248.9l-1.4-10.1h-0.5
	c-5.9,8.1-14.6,12-25.5,12c-15.6,0-26.8-11-26.8-25.7c0-21.6,18.7-32.7,51.1-32.7v-1.6c0-11.5-6.1-17.3-18.2-17.3
	c-8.6,0-16.2,2.2-22.8,6.5l-3.9-12.8c8.1-5,18.2-7.6,30-7.6c22.8,0,34.4,12,34.4,36.1v32.2c0,8.8,0.4,15.7,1.3,20.9L1071.2,248.9
	L1071.2,248.9z M1068.5,205.4c-21.6,0-32.4,5.2-32.4,17.6c0,9.2,5.6,13.7,13.3,13.7c9.9,0,19.1-7.5,19.1-17.8L1068.5,205.4
	L1068.5,205.4z M1130.7,147.1c-6.5,0-11.5-5-11.5-11.7s5.2-11.5,11.9-11.5c6.7,0,12,4.9,11.9,11.5
	C1142.9,142.5,1137.9,147.1,1130.7,147.1z M1140.8,248.9h-19.4v-87.4h19.4L1140.8,248.9L1140.8,248.9z M1194.7,248.9h-19.4V121.4
	h19.4L1194.7,248.9L1194.7,248.9z M1277.2,248.9l-1.4-10.1h-0.5c-5.9,8.1-14.6,12-25.5,12c-15.6,0-26.8-11-26.8-25.7
	c0-21.6,18.7-32.7,51.1-32.7v-1.6c0-11.5-6.1-17.3-18.2-17.3c-8.6,0-16.2,2.2-22.8,6.5l-4-12.8c8.1-5,18.2-7.6,30-7.6
	c22.8,0,34.4,12,34.4,36.1v32.2c0,8.8,0.4,15.7,1.2,20.9L1277.2,248.9L1277.2,248.9z M1274.5,205.4c-21.6,0-32.4,5.2-32.4,17.6
	c0,9.2,5.6,13.7,13.3,13.7c9.9,0,19.1-7.5,19.1-17.8V205.4z M1372.1,250.9c-12.4,0-21.6-5.2-27.5-15.5h-0.4l-1.1,13.5h-16.5
	c0.5-7,0.7-14.9,0.7-23.5V121.4h19.4v52.9h0.4c5.8-9.7,15.1-14.6,27.9-14.6c21,0,35.8,18,35.8,44.2
	C1410.7,231.1,1394.4,250.9,1372.1,250.9L1372.1,250.9z M1368.1,175c-11.2,0-21.4,9.7-21.4,23.2v15.3c0,12,9.2,21.9,21.1,21.9
	c14.5,0,23.2-11.9,23.2-30.7C1391,187.1,1382,175,1368.1,175L1368.1,175z M1458.9,248.9h-19.4V121.4h19.4V248.9z M1564.6,209.9
	h-58.3c0.4,16.5,11.3,25.9,27.5,25.9c8.6,0,16.5-1.4,23.5-4.1l3,13.5c-8.3,3.6-18,5.4-29.3,5.4c-27.3,0-43.5-17.3-43.5-44
	c0-26.8,16.6-46.9,41.3-46.9c22.3,0,36.3,16.5,36.3,41.5C1565.3,204.5,1565.1,207.6,1564.6,209.9L1564.6,209.9z M1546.8,196.1
	c0-13.5-6.8-23-19.3-23c-11.2,0-19.9,9.7-21.2,23H1546.8L1546.8,196.1z M1682.3,250.9c-25.5,0-42.1-19.1-42.1-45
	c0-27,16.9-46.2,43.5-46.2c25.1,0,42.1,18.2,42.1,44.8C1725.8,231.8,1708.3,250.9,1682.3,250.9z M1683,173.9c-14,0-23,13.1-23,31.5
	c0,18,9.2,31.1,22.8,31.1c13.7,0,22.8-14,22.8-31.5C1705.6,187.2,1696.7,173.9,1683,173.9L1683,173.9z M1830.2,248.9h-19.4v-50.2
	c0-15.5-5.9-23.2-17.6-23.2c-11.5,0-19.4,9.9-19.4,21.4v52h-19.4v-62.4c0-7.7-0.2-16-0.7-25h17.1l0.9,13.5h0.5
	c5.2-9.3,15.8-15.3,27.7-15.3c18.3,0,30.4,14,30.4,36.9L1830.2,248.9L1830.2,248.9L1830.2,248.9z M1957.2,176.1h-21.4v42.4
	c0,10.8,3.8,16.2,11.3,16.2c3.4,0,6.3-0.4,8.6-0.9l0.5,14.7c-3.8,1.4-8.8,2.2-15.1,2.2c-15.3,0-24.4-8.4-24.4-30.6v-44.1h-12.7
	v-14.6h12.7v-16l19-5.8v21.8h21.4V176.1L1957.2,176.1z M2060.1,248.9h-19.4v-49.8c0-15.6-5.9-23.5-17.6-23.5
	c-10.1,0-19.4,6.8-19.4,20.7v52.7h-19.4V121.4h19.4v52.5h0.4c6.1-9.5,14.9-14.2,26.3-14.2c18.5,0,29.8,14.4,29.8,37.2V248.9z
	 M2159.3,209.9H2101c0.4,16.5,11.3,25.9,27.5,25.9c8.7,0,16.5-1.4,23.5-4.1l3,13.5c-8.3,3.6-18,5.4-29.3,5.4
	c-27.3,0-43.5-17.3-43.5-44c0-26.8,16.6-46.9,41.3-46.9c22.3,0,36.3,16.5,36.3,41.5C2160,204.5,2159.8,207.6,2159.3,209.9
	L2159.3,209.9z M2141.5,196.1c0-13.5-6.8-23-19.2-23c-11.2,0-20,9.7-21.2,23H2141.5z"/>
<path class="st0" d="M558.2,366.6c-0.5-59.7,48.9-88.8,51.2-90.1c-28-40.8-71.4-46.4-86.6-46.8c-36.4-3.8-71.8,21.8-90.4,21.8
	c-18.9,0-47.5-21.4-78.3-20.8c-39.7,0.6-76.7,23.6-97.1,59.2c-42,72.7-10.7,179.5,29.6,238.3c20.1,28.8,43.6,60.9,74.4,59.8
	c30.1-1.2,41.4-19.2,77.7-19.2c36,0,46.6,19.2,77.9,18.5c32.3-0.5,52.7-28.9,72.1-57.9c23.3-33,32.6-65.5,33-67.1
	C620.9,461.8,558.9,438.2,558.2,366.6L558.2,366.6z M498.9,191c16.2-20.3,27.3-47.8,24.2-75.8c-23.4,1-52.8,16.2-69.6,36
	c-14.9,17.5-28.3,46.1-24.8,73C455,226.2,482,210.9,498.9,191L498.9,191z"/>
</svg>
